<mxfile host="Electron" agent="Mozilla/5.0 (Windows NT 10.0; Win64; x64) AppleWebKit/537.36 (KHTML, like Gecko) draw.io/26.0.16 Chrome/132.0.6834.196 Electron/34.2.0 Safari/537.36" version="26.0.16">
  <diagram name="Page-1" id="U-WSrICX20RtrOSUiMVQ">
    <mxGraphModel dx="866" dy="510" grid="1" gridSize="10" guides="1" tooltips="1" connect="1" arrows="1" fold="1" page="1" pageScale="1" pageWidth="850" pageHeight="1100" math="0" shadow="0">
      <root>
        <mxCell id="0" />
        <mxCell id="1" parent="0" />
        <mxCell id="_IjrtIhsLgdTVZsxCZIB-1" value="" style="rounded=1;whiteSpace=wrap;html=1;fillColor=none;dashed=1;" vertex="1" parent="1">
          <mxGeometry x="10" y="160" width="1000" height="670" as="geometry" />
        </mxCell>
        <mxCell id="_IjrtIhsLgdTVZsxCZIB-2" value="" style="rounded=1;whiteSpace=wrap;html=1;fillColor=none;dashed=1;" vertex="1" parent="1">
          <mxGeometry x="1130" y="160" width="550" height="670" as="geometry" />
        </mxCell>
        <mxCell id="_IjrtIhsLgdTVZsxCZIB-3" value="&lt;h1 style=&quot;margin-top: 0px;&quot;&gt;Data Integration &lt;font style=&quot;font-size: 20px;&quot;&gt;(&lt;span style=&quot;background-color: transparent; color: light-dark(rgb(0, 0, 0), rgb(255, 255, 255)); font-weight: normal;&quot;&gt;How the tables are related)&lt;/span&gt;&lt;/font&gt;&lt;/h1&gt;" style="text;html=1;whiteSpace=wrap;overflow=hidden;rounded=0;fontSize=24;" vertex="1" parent="1">
          <mxGeometry x="40" y="20" width="670" height="60" as="geometry" />
        </mxCell>
        <mxCell id="_IjrtIhsLgdTVZsxCZIB-4" value="crm_&lt;span style=&quot;background-color: transparent; color: light-dark(rgb(0, 0, 0), rgb(255, 255, 255));&quot;&gt;cust_info&lt;/span&gt;" style="swimlane;fontStyle=0;childLayout=stackLayout;horizontal=1;startSize=30;horizontalStack=0;resizeParent=1;resizeParentMax=0;resizeLast=0;collapsible=1;marginBottom=0;whiteSpace=wrap;html=1;rounded=1;fillColor=#dae8fc;strokeColor=#6c8ebf;fontSize=26;" vertex="1" parent="1">
          <mxGeometry x="610" y="605" width="320" height="140" as="geometry" />
        </mxCell>
        <mxCell id="_IjrtIhsLgdTVZsxCZIB-5" value="cust_id" style="text;strokeColor=none;fillColor=none;align=left;verticalAlign=middle;spacingLeft=4;spacingRight=4;overflow=hidden;points=[[0,0.5],[1,0.5]];portConstraint=eastwest;rotatable=0;whiteSpace=wrap;html=1;fontSize=26;" vertex="1" parent="_IjrtIhsLgdTVZsxCZIB-4">
          <mxGeometry y="30" width="320" height="40" as="geometry" />
        </mxCell>
        <mxCell id="_IjrtIhsLgdTVZsxCZIB-6" value="cst_key" style="text;strokeColor=none;fillColor=none;align=left;verticalAlign=middle;spacingLeft=4;spacingRight=4;overflow=hidden;points=[[0,0.5],[1,0.5]];portConstraint=eastwest;rotatable=0;whiteSpace=wrap;html=1;fontSize=26;" vertex="1" parent="_IjrtIhsLgdTVZsxCZIB-4">
          <mxGeometry y="70" width="320" height="40" as="geometry" />
        </mxCell>
        <mxCell id="_IjrtIhsLgdTVZsxCZIB-7" value="Biz Obj&amp;nbsp;Label: Customer" style="text;html=1;strokeColor=#BD7000;fillColor=#f0a30a;align=center;verticalAlign=middle;whiteSpace=wrap;overflow=hidden;fontSize=24;fontColor=#000000;" vertex="1" parent="_IjrtIhsLgdTVZsxCZIB-4">
          <mxGeometry y="110" width="320" height="30" as="geometry" />
        </mxCell>
        <mxCell id="_IjrtIhsLgdTVZsxCZIB-8" value="crm_prd_info" style="swimlane;fontStyle=0;childLayout=stackLayout;horizontal=1;startSize=30;horizontalStack=0;resizeParent=1;resizeParentMax=0;resizeLast=0;collapsible=1;marginBottom=0;whiteSpace=wrap;html=1;rounded=1;fillColor=#dae8fc;strokeColor=#6c8ebf;fontSize=26;" vertex="1" parent="1">
          <mxGeometry x="610" y="298" width="320" height="100" as="geometry" />
        </mxCell>
        <mxCell id="_IjrtIhsLgdTVZsxCZIB-9" value="prd_key" style="text;strokeColor=none;fillColor=none;align=left;verticalAlign=middle;spacingLeft=4;spacingRight=4;overflow=hidden;points=[[0,0.5],[1,0.5]];portConstraint=eastwest;rotatable=0;whiteSpace=wrap;html=1;fontSize=26;" vertex="1" parent="_IjrtIhsLgdTVZsxCZIB-8">
          <mxGeometry y="30" width="320" height="40" as="geometry" />
        </mxCell>
        <mxCell id="_IjrtIhsLgdTVZsxCZIB-10" value="Biz Obj. Label: Product" style="text;html=1;strokeColor=#A50040;fillColor=#d80073;align=center;verticalAlign=middle;whiteSpace=wrap;overflow=hidden;fontSize=24;fontColor=#ffffff;" vertex="1" parent="_IjrtIhsLgdTVZsxCZIB-8">
          <mxGeometry y="70" width="320" height="30" as="geometry" />
        </mxCell>
        <mxCell id="_IjrtIhsLgdTVZsxCZIB-11" value="Customer Information" style="text;html=1;align=center;verticalAlign=middle;whiteSpace=wrap;rounded=0;fontSize=24;" vertex="1" parent="1">
          <mxGeometry x="630" y="570" width="270" height="30" as="geometry" />
        </mxCell>
        <mxCell id="_IjrtIhsLgdTVZsxCZIB-12" value="Current &amp;amp; Historical Product Info" style="text;html=1;align=center;verticalAlign=middle;whiteSpace=wrap;rounded=0;fontSize=24;" vertex="1" parent="1">
          <mxGeometry x="560" y="260" width="390" height="30" as="geometry" />
        </mxCell>
        <mxCell id="_IjrtIhsLgdTVZsxCZIB-13" value="crm_sales_details" style="swimlane;fontStyle=0;childLayout=stackLayout;horizontal=1;startSize=30;horizontalStack=0;resizeParent=1;resizeParentMax=0;resizeLast=0;collapsible=1;marginBottom=0;whiteSpace=wrap;html=1;rounded=1;fillColor=#dae8fc;strokeColor=#6c8ebf;fontSize=26;" vertex="1" parent="1">
          <mxGeometry x="90" y="370" width="320" height="140" as="geometry" />
        </mxCell>
        <mxCell id="_IjrtIhsLgdTVZsxCZIB-14" value="prd_key" style="text;strokeColor=none;fillColor=none;align=left;verticalAlign=middle;spacingLeft=4;spacingRight=4;overflow=hidden;points=[[0,0.5],[1,0.5]];portConstraint=eastwest;rotatable=0;whiteSpace=wrap;html=1;fontSize=26;" vertex="1" parent="_IjrtIhsLgdTVZsxCZIB-13">
          <mxGeometry y="30" width="320" height="40" as="geometry" />
        </mxCell>
        <mxCell id="_IjrtIhsLgdTVZsxCZIB-15" value="cust_id" style="text;strokeColor=none;fillColor=none;align=left;verticalAlign=middle;spacingLeft=4;spacingRight=4;overflow=hidden;points=[[0,0.5],[1,0.5]];portConstraint=eastwest;rotatable=0;whiteSpace=wrap;html=1;fontSize=26;strokeWidth=2;rounded=1;" vertex="1" parent="_IjrtIhsLgdTVZsxCZIB-13">
          <mxGeometry y="70" width="320" height="40" as="geometry" />
        </mxCell>
        <mxCell id="_IjrtIhsLgdTVZsxCZIB-16" value="Biz Obj&amp;nbsp;Label: Sales" style="text;html=1;strokeColor=#2D7600;fillColor=#60a917;align=center;verticalAlign=middle;whiteSpace=wrap;overflow=hidden;fontSize=24;fontColor=#ffffff;" vertex="1" parent="_IjrtIhsLgdTVZsxCZIB-13">
          <mxGeometry y="110" width="320" height="30" as="geometry" />
        </mxCell>
        <mxCell id="_IjrtIhsLgdTVZsxCZIB-17" value="Event &amp;amp; Tansactional Sales and Order Info" style="text;html=1;align=center;verticalAlign=middle;whiteSpace=wrap;rounded=0;fontSize=24;" vertex="1" parent="1">
          <mxGeometry x="20" y="330" width="480" height="30" as="geometry" />
        </mxCell>
        <mxCell id="_IjrtIhsLgdTVZsxCZIB-18" value="erp_cust_az12" style="swimlane;fontStyle=0;childLayout=stackLayout;horizontal=1;startSize=30;horizontalStack=0;resizeParent=1;resizeParentMax=0;resizeLast=0;collapsible=1;marginBottom=0;whiteSpace=wrap;html=1;rounded=1;fillColor=#fff2cc;strokeColor=#d6b656;fontSize=26;" vertex="1" parent="1">
          <mxGeometry x="1295" y="548" width="320" height="90" as="geometry" />
        </mxCell>
        <mxCell id="_IjrtIhsLgdTVZsxCZIB-19" value="CID" style="text;strokeColor=none;fillColor=none;align=left;verticalAlign=middle;spacingLeft=4;spacingRight=4;overflow=hidden;points=[[0,0.5],[1,0.5]];portConstraint=eastwest;rotatable=0;whiteSpace=wrap;html=1;fontSize=26;" vertex="1" parent="_IjrtIhsLgdTVZsxCZIB-18">
          <mxGeometry y="30" width="320" height="30" as="geometry" />
        </mxCell>
        <mxCell id="_IjrtIhsLgdTVZsxCZIB-20" value="Biz Obj&amp;nbsp;Label: Customer" style="text;html=1;strokeColor=#BD7000;fillColor=#f0a30a;align=center;verticalAlign=middle;whiteSpace=wrap;overflow=hidden;fontSize=24;fontColor=#000000;" vertex="1" parent="_IjrtIhsLgdTVZsxCZIB-18">
          <mxGeometry y="60" width="320" height="30" as="geometry" />
        </mxCell>
        <mxCell id="_IjrtIhsLgdTVZsxCZIB-21" value="loc_a101" style="swimlane;fontStyle=0;childLayout=stackLayout;horizontal=1;startSize=30;horizontalStack=0;resizeParent=1;resizeParentMax=0;resizeLast=0;collapsible=1;marginBottom=0;whiteSpace=wrap;html=1;rounded=1;fillColor=#fff2cc;strokeColor=#d6b656;fontSize=26;" vertex="1" parent="1">
          <mxGeometry x="1290" y="748" width="320" height="100" as="geometry" />
        </mxCell>
        <mxCell id="_IjrtIhsLgdTVZsxCZIB-22" value="CID" style="text;strokeColor=none;fillColor=none;align=left;verticalAlign=middle;spacingLeft=4;spacingRight=4;overflow=hidden;points=[[0,0.5],[1,0.5]];portConstraint=eastwest;rotatable=0;whiteSpace=wrap;html=1;fontSize=26;" vertex="1" parent="_IjrtIhsLgdTVZsxCZIB-21">
          <mxGeometry y="30" width="320" height="40" as="geometry" />
        </mxCell>
        <mxCell id="_IjrtIhsLgdTVZsxCZIB-23" value="Biz Obj&amp;nbsp;Label: Customer" style="text;html=1;strokeColor=#BD7000;fillColor=#f0a30a;align=center;verticalAlign=middle;whiteSpace=wrap;overflow=hidden;fontSize=24;fontColor=#000000;" vertex="1" parent="_IjrtIhsLgdTVZsxCZIB-21">
          <mxGeometry y="70" width="320" height="30" as="geometry" />
        </mxCell>
        <mxCell id="_IjrtIhsLgdTVZsxCZIB-24" value="Customer Information: Birthdate &amp;amp; Gender" style="text;html=1;align=center;verticalAlign=middle;whiteSpace=wrap;rounded=0;fontSize=24;" vertex="1" parent="1">
          <mxGeometry x="1200" y="508" width="460" height="30" as="geometry" />
        </mxCell>
        <mxCell id="_IjrtIhsLgdTVZsxCZIB-25" value="Customer Information: Location" style="text;html=1;align=center;verticalAlign=middle;whiteSpace=wrap;rounded=0;fontSize=24;" vertex="1" parent="1">
          <mxGeometry x="1250" y="708" width="390" height="30" as="geometry" />
        </mxCell>
        <mxCell id="_IjrtIhsLgdTVZsxCZIB-26" value="erp_px_cat_g1v2" style="swimlane;fontStyle=0;childLayout=stackLayout;horizontal=1;startSize=30;horizontalStack=0;resizeParent=1;resizeParentMax=0;resizeLast=0;collapsible=1;marginBottom=0;whiteSpace=wrap;html=1;rounded=1;fillColor=#fff2cc;strokeColor=#d6b656;fontSize=26;" vertex="1" parent="1">
          <mxGeometry x="1210" y="238" width="320" height="100" as="geometry" />
        </mxCell>
        <mxCell id="_IjrtIhsLgdTVZsxCZIB-27" value="ID" style="text;strokeColor=none;fillColor=none;align=left;verticalAlign=middle;spacingLeft=4;spacingRight=4;overflow=hidden;points=[[0,0.5],[1,0.5]];portConstraint=eastwest;rotatable=0;whiteSpace=wrap;html=1;fontSize=26;" vertex="1" parent="_IjrtIhsLgdTVZsxCZIB-26">
          <mxGeometry y="30" width="320" height="40" as="geometry" />
        </mxCell>
        <mxCell id="_IjrtIhsLgdTVZsxCZIB-28" value="Biz Obj&amp;nbsp;Label: Product" style="text;html=1;strokeColor=#A50040;fillColor=#d80073;align=center;verticalAlign=middle;whiteSpace=wrap;overflow=hidden;fontSize=24;fontColor=#ffffff;" vertex="1" parent="_IjrtIhsLgdTVZsxCZIB-26">
          <mxGeometry y="70" width="320" height="30" as="geometry" />
        </mxCell>
        <mxCell id="_IjrtIhsLgdTVZsxCZIB-29" value="Product Categories" style="text;html=1;align=center;verticalAlign=middle;whiteSpace=wrap;rounded=0;fontSize=24;" vertex="1" parent="1">
          <mxGeometry x="1225" y="200" width="285" height="30" as="geometry" />
        </mxCell>
        <mxCell id="_IjrtIhsLgdTVZsxCZIB-30" value="&lt;h1 style=&quot;margin-top: 0px;&quot;&gt;Enterprise Resource Planning&lt;/h1&gt;" style="text;html=1;whiteSpace=wrap;overflow=hidden;rounded=0;fontSize=20;" vertex="1" parent="1">
          <mxGeometry x="1120" y="90" width="580" height="70" as="geometry" />
        </mxCell>
        <mxCell id="_IjrtIhsLgdTVZsxCZIB-31" style="edgeStyle=orthogonalEdgeStyle;rounded=0;orthogonalLoop=1;jettySize=auto;html=1;entryX=0;entryY=0.5;entryDx=0;entryDy=0;strokeWidth=2;" edge="1" parent="1" source="_IjrtIhsLgdTVZsxCZIB-14" target="_IjrtIhsLgdTVZsxCZIB-9">
          <mxGeometry relative="1" as="geometry" />
        </mxCell>
        <mxCell id="_IjrtIhsLgdTVZsxCZIB-32" style="edgeStyle=orthogonalEdgeStyle;rounded=0;orthogonalLoop=1;jettySize=auto;html=1;entryX=0;entryY=0.5;entryDx=0;entryDy=0;strokeWidth=2;" edge="1" parent="1" source="_IjrtIhsLgdTVZsxCZIB-15" target="_IjrtIhsLgdTVZsxCZIB-5">
          <mxGeometry relative="1" as="geometry" />
        </mxCell>
        <mxCell id="_IjrtIhsLgdTVZsxCZIB-33" value="&lt;h1 style=&quot;margin-top: 0px;&quot;&gt;Customer Relationship Management&lt;/h1&gt;" style="text;html=1;whiteSpace=wrap;overflow=hidden;rounded=0;fontSize=20;" vertex="1" parent="1">
          <mxGeometry x="165" y="90" width="710" height="70" as="geometry" />
        </mxCell>
        <mxCell id="_IjrtIhsLgdTVZsxCZIB-34" style="edgeStyle=orthogonalEdgeStyle;rounded=0;orthogonalLoop=1;jettySize=auto;html=1;exitX=0;exitY=0.5;exitDx=0;exitDy=0;strokeWidth=2;" edge="1" parent="1" source="_IjrtIhsLgdTVZsxCZIB-27" target="_IjrtIhsLgdTVZsxCZIB-9">
          <mxGeometry relative="1" as="geometry" />
        </mxCell>
        <mxCell id="_IjrtIhsLgdTVZsxCZIB-35" style="edgeStyle=orthogonalEdgeStyle;rounded=0;orthogonalLoop=1;jettySize=auto;html=1;exitX=0;exitY=0.5;exitDx=0;exitDy=0;strokeWidth=2;" edge="1" parent="1" source="_IjrtIhsLgdTVZsxCZIB-19" target="_IjrtIhsLgdTVZsxCZIB-6">
          <mxGeometry relative="1" as="geometry" />
        </mxCell>
        <mxCell id="_IjrtIhsLgdTVZsxCZIB-36" style="edgeStyle=orthogonalEdgeStyle;rounded=0;orthogonalLoop=1;jettySize=auto;html=1;exitX=0;exitY=0.5;exitDx=0;exitDy=0;strokeWidth=2;" edge="1" parent="1" source="_IjrtIhsLgdTVZsxCZIB-22" target="_IjrtIhsLgdTVZsxCZIB-6">
          <mxGeometry relative="1" as="geometry" />
        </mxCell>
      </root>
    </mxGraphModel>
  </diagram>
</mxfile>
